<svg version="1.1" id="Layer_1" xmlns="http://www.w3.org/2000/svg" xmlns:xlink="http://www.w3.org/1999/xlink" x="0px" y="0px"
	 width="100%" viewBox="0 0 1080 310" enable-background="new 0 0 1080 310" xml:space="preserve">
<path fill="#FFFFFF" opacity="1.000000" stroke="none" 
	d="
M0.999999,191.000000 
	C1.000000,161.310013 1.000000,131.620010 1.322907,101.584061 
	C4.021038,103.146088 6.135185,106.065964 8.823717,106.759644 
	C15.182856,108.400391 20.107468,103.627708 20.126772,96.417511 
	C20.189680,72.919357 20.152573,49.420921 20.153925,25.922596 
	C20.154026,24.151901 20.153938,22.381207 20.153938,20.139631 
	C22.611647,20.139631 24.407547,20.139635 26.203445,20.139631 
	C49.535118,20.139582 72.867088,20.191668 96.198006,20.059130 
	C98.540672,20.045820 101.326920,19.523865 103.134949,18.190586 
	C109.490845,13.503615 108.025948,6.138530 100.000000,1.000000 
	C130.023331,1.000000 160.046646,1.000000 190.337479,1.275534 
	C185.119904,4.672923 183.174057,8.398514 184.526154,13.189813 
	C185.932373,18.172920 189.055847,20.135477 195.653732,20.137060 
	C218.792831,20.142607 241.931946,20.139223 265.071045,20.139231 
	C266.852966,20.139231 268.634918,20.139233 270.952820,20.139233 
	C270.952820,22.484009 270.952759,24.267252 270.952789,26.050497 
	C270.953186,49.356068 270.933807,72.661667 270.966095,95.967194 
	C270.975739,102.927071 274.461426,106.939461 280.354584,106.998360 
	C286.563293,107.060402 289.997986,103.097809 290.000977,95.782280 
	C290.012238,68.315002 289.883362,40.846741 290.103607,13.381224 
	C290.150604,7.521190 288.377563,3.405257 283.000000,1.000000 
	C548.948303,1.000000 814.896545,1.000000 1080.922363,1.000000 
	C1080.922363,104.261452 1080.922363,207.522980 1080.922363,310.892273 
	C721.000000,310.892273 361.000031,310.892273 1.000000,310.892273 
	C1.000000,302.260437 1.000000,293.595215 1.323205,284.584229 
	C3.545057,287.614044 6.060961,290.024200 10.259933,290.021698 
	C36.064686,290.006470 61.872116,290.180450 87.670326,289.769043 
	C90.429718,289.725037 94.171356,286.909943 95.662292,284.339294 
	C99.413734,277.871063 94.096199,271.049133 85.674759,271.021545 
	C65.697052,270.956055 45.718987,270.999969 25.741066,270.999634 
	C23.990849,270.999603 22.240633,270.999634 20.153753,270.999634 
	C20.153753,268.430054 20.153858,266.620117 20.153736,264.810181 
	C20.152182,241.502609 20.132790,218.195007 20.164825,194.887482 
	C20.170856,190.499649 18.808178,186.476532 14.471736,185.405624 
	C11.464000,184.662872 7.807049,185.553970 4.716058,186.561478 
	C3.160401,187.068527 2.219107,189.460434 0.999999,191.000000 
M161.851105,230.880905 
	C161.851105,234.943207 161.851105,239.005508 161.851105,242.926971 
	C164.294815,242.926971 166.054840,242.926971 168.001877,242.926971 
	C168.001877,238.428238 168.001877,234.163177 168.874954,230.021759 
	C170.791962,230.021759 172.708984,230.021759 174.719711,230.021759 
	C174.930832,232.510925 175.091064,234.400238 175.299545,236.858505 
	C177.493896,236.457947 179.338135,236.121307 181.619476,236.758072 
	C181.619476,238.810471 181.619476,240.862869 181.619476,242.959854 
	C183.943924,242.959854 185.846283,242.959854 187.712540,242.959854 
	C187.712540,240.820953 187.712540,238.942505 187.712540,237.353699 
	C185.287720,236.813538 183.229172,236.354965 181.196671,234.981049 
	C181.196671,231.253113 181.196671,227.525162 181.196671,223.641464 
	C178.853500,223.495804 177.084320,223.385818 175.098145,223.262344 
	C175.098145,221.217636 175.098145,219.325058 175.098145,216.917984 
	C179.485474,216.917984 183.729828,216.917984 187.998978,217.813751 
	C187.998978,219.525269 187.998978,221.236786 187.998978,222.864807 
	C190.477737,222.864807 192.255493,222.864807 193.974533,222.864807 
	C194.173462,222.441071 194.416000,222.154434 194.429565,221.857346 
	C194.504227,220.223145 194.522873,218.586380 195.499222,217.018890 
	C197.378357,217.018280 199.257477,217.017670 200.968796,217.867035 
	C200.968796,219.639832 200.968796,221.412643 200.968796,223.207581 
	C203.385452,223.207581 205.392807,223.207581 207.272919,223.207581 
	C207.272919,220.886047 207.272919,219.008728 207.272919,217.134964 
	C204.950150,217.134964 202.984451,217.134964 201.024063,216.207825 
	C201.024063,214.401779 201.024063,212.595734 201.024063,210.810638 
	C203.360107,210.596817 205.291443,210.420044 207.244766,210.241257 
	C207.244766,207.989075 207.244766,206.081116 207.244766,204.109970 
	C205.007355,204.001663 203.077515,203.908264 200.741180,203.795181 
	C200.741180,199.365738 200.741180,195.272995 200.741180,191.133423 
	C198.505417,191.133423 196.702438,191.133423 194.482513,191.133423 
	C194.482513,195.376541 194.482513,199.470581 194.482513,203.611542 
	C192.018478,203.611542 189.982620,203.611542 187.684448,203.611542 
	C187.684448,199.295242 187.684448,195.341721 187.684448,191.090988 
	C185.461884,191.090988 183.506500,191.090988 181.410965,190.150986 
	C181.442368,184.800034 181.473770,179.449097 182.501678,174.029037 
	C188.675644,174.020187 194.849625,174.011322 200.979279,174.863571 
	C200.457626,180.564011 205.760666,176.238785 207.334396,178.734146 
	C207.409500,180.265442 207.496262,182.034317 207.592255,183.991547 
	C209.833679,183.991547 211.758774,183.991547 213.976410,183.991547 
	C213.976410,180.559219 213.976410,177.280838 214.913666,174.000000 
	C219.442154,174.000000 223.970627,174.000000 228.887314,174.000000 
	C228.887314,170.872269 228.887314,168.444305 229.525894,165.456406 
	C235.912735,165.456406 242.299591,165.456406 248.320099,165.456406 
	C249.844788,160.179764 248.003632,158.685867 244.069962,158.124649 
	C244.336594,155.210052 242.972260,153.958633 240.092377,154.076172 
	C238.481522,154.141891 236.862411,154.004837 235.178955,153.117508 
	C234.077896,148.098007 233.282990,142.987854 231.827423,138.073334 
	C219.963623,98.016685 189.381409,78.656334 154.010788,76.198181 
	C154.660263,71.664558 155.910019,67.119469 155.823685,62.599899 
	C155.681061,55.135509 151.953659,50.035057 146.173584,48.912209 
	C144.787811,50.713306 142.707703,52.319958 142.139206,54.349930 
	C139.944916,62.185574 141.928391,69.684395 144.016327,76.986160 
	C140.554642,77.308014 137.088806,77.590767 133.631927,77.957863 
	C104.351982,81.067215 81.644455,94.921532 65.805000,119.768150 
	C59.133034,130.234161 54.511070,141.550171 52.153801,154.008804 
	C50.823326,154.011063 49.492702,154.027191 48.162403,154.012939 
	C44.492428,153.973633 43.161541,155.443604 44.209061,159.062057 
	C43.533676,160.354263 42.018040,162.030670 42.389938,162.844009 
	C42.884277,163.925110 44.800449,164.800125 46.192242,164.947647 
	C51.395824,165.499176 56.634693,165.717880 62.026951,166.802551 
	C62.871796,172.851837 66.266418,174.966217 72.275818,174.095810 
	C75.845810,173.578735 79.554619,174.020035 83.152054,174.866394 
	C82.853264,180.552994 88.065002,176.185486 90.056496,179.361877 
	C90.056496,182.507812 90.056496,186.586639 90.056496,190.566223 
	C94.553474,190.566223 98.640869,190.566223 103.098450,190.566223 
	C103.098450,186.180878 103.098450,182.077988 103.098450,178.008194 
	C105.282272,177.869080 107.081589,177.754471 109.108521,177.625351 
	C109.108521,176.288025 109.108521,175.139145 109.967422,174.089050 
	C111.986145,174.060196 114.004875,174.031342 115.979225,174.873856 
	C115.602287,177.242462 116.575821,177.995529 118.969467,177.920975 
	C124.361717,177.753036 129.762772,177.868271 135.246353,177.868271 
	C135.388077,180.179001 135.496719,181.950424 135.617096,183.912994 
	C137.884232,184.129700 139.977127,184.329758 141.988434,185.513229 
	C141.988434,189.427429 141.988434,193.341614 141.988434,197.256729 
	C144.531342,197.500198 146.466583,197.685471 148.565414,197.886429 
	C148.565414,200.019974 148.565414,201.886093 148.565414,203.633347 
	C144.100616,203.633347 139.885300,203.633347 135.414276,203.633347 
	C135.414276,199.325409 135.414276,195.365723 135.414276,191.027817 
	C133.035126,191.027817 130.916931,191.027817 128.952484,190.135880 
	C128.952484,188.216980 128.952484,186.298080 128.952484,184.456970 
	C122.186340,184.456970 115.966866,184.456970 109.734802,184.456970 
	C109.734802,186.721115 109.734802,188.634491 109.734802,190.893127 
	C116.350548,190.893127 122.644249,190.893127 128.978607,191.842651 
	C128.978607,197.936264 128.978607,204.029861 128.978607,210.277023 
	C131.306747,210.491150 133.214233,210.666580 135.106171,210.840591 
	C135.106171,213.068893 135.106171,214.927505 135.106171,216.764725 
	C132.862228,216.956711 130.964905,217.119034 129.295929,217.261826 
	C129.295929,221.733459 129.295929,225.794708 129.295929,230.072800 
	C131.583069,230.072800 133.557404,230.072800 135.438263,230.962570 
	C135.438263,232.864227 135.438263,234.765869 135.438263,236.591751 
	C132.974243,236.771011 131.059372,236.910324 129.289658,237.039062 
	C129.289658,239.319504 129.289658,241.218262 129.289658,243.040710 
	C131.422928,243.040710 133.230743,243.040710 135.215729,243.040710 
	C135.477386,240.838440 135.721313,238.785583 135.961975,236.760086 
	C138.076523,236.608215 139.865311,236.479752 141.835968,236.338211 
	C141.835968,234.218765 141.835968,232.302902 141.835968,230.182999 
	C139.604889,230.182999 137.490311,230.182999 135.520859,229.223557 
	C135.601974,227.455200 135.683090,225.686844 135.799545,223.148270 
	C142.420441,223.148270 148.673752,223.148270 154.916901,224.156876 
	C155.022568,226.085098 155.128220,228.013321 155.234680,229.956024 
	C157.758453,229.956024 159.895264,229.956024 161.851105,230.880905 
M888.575073,137.111572 
	C880.539062,151.811310 876.788208,167.403809 878.971680,184.170181 
	C880.314575,194.482422 884.317261,203.313675 894.802612,207.075684 
	C905.442444,210.893127 915.087646,208.056091 923.600830,200.955093 
	C925.325439,199.516541 926.899963,197.897949 929.287537,195.667358 
	C929.041199,199.968567 928.855225,203.215485 928.638245,207.003937 
	C933.414551,207.003937 938.039185,206.866119 942.650391,207.055161 
	C945.457825,207.170242 946.607117,206.390671 947.212402,203.386002 
	C950.657288,186.286514 954.411499,169.249390 958.056763,152.190231 
	C960.445435,141.011353 962.827698,129.831070 965.305054,118.219429 
	C958.960571,118.219429 952.897034,117.201706 947.522705,118.683617 
	C945.127014,119.344208 944.120911,125.036415 942.467590,128.436935 
	C942.417053,128.540955 942.181824,128.555191 941.731934,128.724335 
	C941.411316,128.358521 940.955444,127.948120 940.630920,127.451797 
	C934.413574,117.943199 925.470520,115.078781 914.674866,116.864563 
	C902.653442,118.853088 895.116516,126.787254 888.575073,137.111572 
M674.481628,201.051743 
	C675.933777,199.078644 677.385986,197.105545 678.838135,195.132431 
	C681.325195,198.545883 682.079529,200.902618 683.230530,203.046402 
	C683.854980,204.209412 685.106323,205.775650 686.158264,205.842224 
	C690.912537,206.143219 695.696533,205.973740 700.698730,205.973740 
	C700.698730,168.404724 700.698730,131.513214 700.698730,94.490402 
	C693.345581,94.490402 686.333740,94.490402 679.026001,94.490402 
	C679.026001,103.629166 678.836914,112.290833 679.101013,120.938660 
	C679.246094,125.688896 680.154846,130.415817 680.813171,135.941528 
	C679.170227,134.422638 677.871704,133.452271 676.853577,132.245438 
	C666.332092,119.775291 640.977112,120.713280 631.801025,139.437592 
	C624.153564,155.042572 623.961975,171.316025 629.420959,187.395462 
	C637.093262,209.994064 661.073120,211.596039 674.481628,201.051743 
M752.396423,133.021317 
	C751.282288,131.384506 749.842651,129.880890 749.108887,128.088364 
	C745.460022,119.174934 750.898926,109.887611 760.559753,110.100716 
	C769.004700,110.286995 777.405579,112.471451 786.601440,113.893028 
	C788.906372,109.022850 791.709717,103.099571 794.468811,97.269844 
	C780.793457,88.434341 758.359375,86.400383 744.384033,92.388123 
	C727.781677,99.501366 719.482910,116.134148 724.133667,133.215271 
	C726.765686,142.881821 733.440002,149.499557 741.113464,155.389359 
	C745.326233,158.622864 749.761047,161.770401 753.242676,165.710510 
	C760.469849,173.889450 757.173523,184.525574 746.596802,186.874100 
	C741.531128,187.998901 735.895325,188.279663 730.836487,187.298752 
	C723.641174,185.903534 716.739380,182.994049 709.313232,180.603058 
	C709.313232,186.227890 709.484009,191.857788 709.246948,197.470444 
	C709.112427,200.654800 710.295715,202.740326 713.192322,203.530426 
	C719.882751,205.355331 726.556030,207.615616 733.389099,208.453842 
	C742.725952,209.599197 752.008179,208.139725 760.741577,204.383636 
	C786.181030,193.442520 789.090637,160.587875 766.176697,143.299072 
	C761.795593,139.993454 757.340881,136.785446 752.396423,133.021317 
M999.177429,187.806564 
	C999.811951,184.882675 1000.283691,181.911865 1001.110291,179.043335 
	C1004.001831,169.009552 1006.336792,158.732925 1010.274231,149.118210 
	C1012.198730,144.418716 1016.550537,139.946838 1020.946777,137.203934 
	C1027.691406,132.995712 1033.978271,137.320450 1034.034302,145.318436 
	C1034.050293,147.626755 1033.801758,149.978424 1033.340210,152.242050 
	C1029.656616,170.306183 1025.892578,188.353943 1022.086670,206.728271 
	C1030.138428,206.728271 1037.901489,206.728271 1046.007935,206.728271 
	C1047.161011,201.352905 1048.396118,196.024704 1049.437378,190.658875 
	C1052.444092,175.164825 1055.946289,159.737350 1058.171143,144.129410 
	C1060.406738,128.447113 1051.816284,117.481209 1037.337402,116.358253 
	C1027.539062,115.598320 1019.568359,119.835388 1013.091797,127.011490 
	C1011.154236,129.158401 1009.364319,131.438614 1006.888306,134.396576 
	C1007.372803,128.408936 1007.770081,123.499138 1008.192383,118.280121 
	C1001.887085,118.280121 996.125000,118.280121 989.952515,118.280121 
	C983.712769,147.694687 977.478333,177.084198 971.133423,206.994629 
	C978.687866,206.994629 985.830505,207.121933 992.958008,206.851685 
	C993.978455,206.812988 995.489441,204.997818 995.808472,203.756729 
	C997.090088,198.771637 997.992310,193.689026 999.177429,187.806564 
M486.373627,207.035019 
	C492.507141,205.287399 499.265839,204.633621 504.641998,201.560867 
	C515.317749,195.459076 519.625122,185.090103 521.338074,173.023270 
	C524.337097,151.896835 515.078125,127.306946 488.493835,124.346222 
	C477.224304,123.091125 466.654175,124.934235 457.419434,132.064880 
	C440.570404,145.074829 440.696442,175.623581 449.971954,190.341370 
	C458.138824,203.300079 470.417450,208.223541 486.373627,207.035019 
M541.799316,191.607925 
	C553.457520,210.671967 583.380981,210.449081 596.182800,201.518600 
	C606.126892,194.581711 610.618042,184.914948 612.332214,173.066528 
	C615.381470,151.990341 606.035156,127.266808 579.600830,124.381279 
	C567.811035,123.094322 557.008850,125.194031 547.393616,132.937531 
	C532.247314,145.135406 531.493286,176.199387 541.799316,191.607925 
M401.527039,146.019791 
	C399.027130,146.015900 396.505859,146.199829 394.037537,145.918655 
	C393.004242,145.800949 391.253693,144.716064 391.237640,144.037659 
	C391.043060,135.798492 391.111389,127.553131 391.111389,118.693176 
	C404.556152,118.693176 417.118103,118.693176 429.973755,118.693176 
	C429.973755,113.559738 429.846863,109.066101 430.018616,104.583908 
	C430.131897,101.627411 428.801941,100.936264 426.124390,100.947762 
	C408.458679,101.023643 390.792267,101.033691 373.126709,100.939964 
	C370.210510,100.924500 368.982544,101.691879 368.991333,104.859718 
	C369.081604,137.358307 369.072968,169.857300 369.003479,202.355988 
	C368.997284,205.246353 370.110046,206.128540 372.849274,206.040649 
	C377.510986,205.891037 382.189240,205.830139 386.844666,206.057358 
	C390.155884,206.218964 391.155396,204.992798 391.107178,201.748886 
	C390.946198,190.918350 391.167816,180.081833 390.982605,169.252075 
	C390.916687,165.399750 392.125946,163.882339 396.126678,163.980667 
	C405.120880,164.201721 414.126831,164.151917 423.121216,163.933609 
	C424.425629,163.901947 426.730743,162.412857 426.803040,161.463425 
	C427.177582,156.545624 426.977173,151.584061 426.977173,146.019821 
	C418.421356,146.019821 410.470947,146.019821 401.527039,146.019791 
M286.976898,287.548706 
	C287.985352,285.186462 289.854645,282.830200 289.871246,280.461029 
	C290.072906,251.641663 290.017334,222.820389 289.985107,193.999649 
	C289.980377,189.772964 288.023956,186.656769 284.034088,185.047409 
	C277.202820,182.292007 270.991547,187.068329 270.973358,195.209229 
	C270.921204,218.532288 270.953613,241.855530 270.952820,265.178711 
	C270.952759,266.959137 270.952820,268.739532 270.952820,270.999847 
	C268.607117,270.999847 266.817200,270.999817 265.027252,270.999878 
	C245.035965,271.000549 225.044525,270.959808 205.053452,271.026611 
	C198.857193,271.047333 194.307739,275.215912 194.307877,280.531097 
	C194.308029,286.075928 198.613358,290.005524 204.897064,290.013092 
	C229.719543,290.042999 254.542374,290.077789 279.364136,289.940369 
	C281.703705,289.927399 284.036682,288.720581 286.976898,287.548706 
M835.005615,141.481293 
	C844.604126,132.124878 854.948853,136.295731 865.537964,140.230560 
	C867.704346,134.929840 869.941772,129.939789 871.684509,124.782585 
	C872.033569,123.749916 870.832397,121.249413 869.782104,120.826660 
	C847.052368,111.677155 821.143738,115.291267 807.643433,140.868912 
	C801.000977,153.453781 799.019226,166.943939 799.956970,180.989731 
	C800.862732,194.557312 809.132629,204.537949 822.333679,207.512939 
	C834.085693,210.161377 845.477905,208.467590 856.447388,203.746048 
	C857.677429,203.216583 859.419739,201.931656 859.469177,200.925522 
	C859.757080,195.067169 859.610107,189.187454 859.610107,182.841797 
	C855.550476,184.518845 852.429871,186.134033 849.118652,187.086349 
	C845.643005,188.085922 841.999146,188.885376 838.403259,189.005600 
	C829.724976,189.295700 824.607117,185.004044 824.171936,176.486008 
	C823.527893,163.878128 825.972046,151.972290 835.005615,141.481293 
M83.726059,243.186066 
	C96.607841,243.186066 109.489624,243.186066 122.188217,243.186066 
	C122.188217,227.575760 122.188217,212.690155 122.188217,197.530701 
	C106.975250,197.530701 92.106705,197.530701 77.092422,197.530701 
	C77.092422,212.936646 77.092422,227.960876 77.092422,243.186050 
	C79.179985,243.186050 80.990234,243.186050 83.726059,243.186066 
M200.893494,242.012054 
	C200.893494,240.393387 200.893494,238.774704 200.893494,236.981735 
	C198.624557,236.981735 196.701691,236.981735 194.629135,236.981735 
	C194.629135,239.097031 194.629135,240.980774 194.629135,243.347198 
	C196.837067,243.139984 198.750137,242.960434 200.893494,242.012054 
M83.215393,188.285263 
	C83.143387,186.987137 83.071381,185.689026 82.998749,184.379639 
	C80.890305,184.379639 78.994514,184.379639 77.155228,184.379639 
	C77.155228,186.682800 77.155228,188.706818 77.155228,191.989243 
	C79.669304,190.782318 81.436783,189.933807 83.215393,188.285263 
M191.356628,184.216141 
	C197.135910,184.208405 193.681061,180.373245 194.407776,178.057159 
	C191.986221,178.057159 190.069534,178.057159 187.569397,178.057159 
	C189.092102,180.235641 185.534454,183.980133 191.356628,184.216141 
M214.060760,234.215347 
	C213.982788,232.803711 213.904831,231.392090 213.819290,229.843185 
	C211.442581,229.963440 209.529419,230.060257 207.725586,230.151535 
	C207.725586,232.497604 207.725586,234.388641 207.725586,237.401093 
	C210.257080,236.479019 212.152252,235.788712 214.060760,234.215347 
z"/>
<path fill="#FF914E" opacity="1.000000" stroke="none" 
	d="
M99.531342,1.000000 
	C108.025948,6.138530 109.490845,13.503615 103.134949,18.190586 
	C101.326920,19.523865 98.540672,20.045820 96.198006,20.059130 
	C72.867088,20.191668 49.535118,20.139582 26.203445,20.139631 
	C24.407547,20.139635 22.611647,20.139631 20.153938,20.139631 
	C20.153938,22.381207 20.154026,24.151901 20.153925,25.922596 
	C20.152573,49.420921 20.189680,72.919357 20.126772,96.417511 
	C20.107468,103.627708 15.182856,108.400391 8.823717,106.759644 
	C6.135185,106.065964 4.021038,103.146088 1.322907,101.119049 
	C1.000000,67.740097 1.000000,34.480194 1.000000,1.000000 
	C33.687233,1.000000 66.374954,1.000000 99.531342,1.000000 
z"/>
<path fill="#FF914D" opacity="1.000000" stroke="none" 
	d="
M282.531342,1.000000 
	C288.377563,3.405257 290.150604,7.521190 290.103607,13.381224 
	C289.883362,40.846741 290.012238,68.315002 290.000977,95.782280 
	C289.997986,103.097809 286.563293,107.060402 280.354584,106.998360 
	C274.461426,106.939461 270.975739,102.927071 270.966095,95.967194 
	C270.933807,72.661667 270.953186,49.356068 270.952789,26.050497 
	C270.952759,24.267252 270.952820,22.484009 270.952820,20.139233 
	C268.634918,20.139233 266.852966,20.139231 265.071045,20.139231 
	C241.931946,20.139223 218.792831,20.142607 195.653732,20.137060 
	C189.055847,20.135477 185.932373,18.172920 184.526154,13.189813 
	C183.174057,8.398514 185.119904,4.672923 190.802490,1.275534 
	C221.354233,1.000000 251.708450,1.000000 282.531342,1.000000 
z"/>
<path fill="#FF914E" opacity="1.000000" stroke="none" 
	d="
M0.999999,191.468658 
	C2.219107,189.460434 3.160401,187.068527 4.716058,186.561478 
	C7.807049,185.553970 11.464000,184.662872 14.471736,185.405624 
	C18.808178,186.476532 20.170856,190.499649 20.164825,194.887482 
	C20.132790,218.195007 20.152182,241.502609 20.153736,264.810181 
	C20.153858,266.620117 20.153753,268.430054 20.153753,270.999634 
	C22.240633,270.999634 23.990849,270.999603 25.741066,270.999634 
	C45.718987,270.999969 65.697052,270.956055 85.674759,271.021545 
	C94.096199,271.049133 99.413734,277.871063 95.662292,284.339294 
	C94.171356,286.909943 90.429718,289.725037 87.670326,289.769043 
	C61.872116,290.180450 36.064686,290.006470 10.259933,290.021698 
	C6.060961,290.024200 3.545057,287.614044 1.323205,284.119202 
	C1.000000,253.312439 1.000000,222.624878 0.999999,191.468658 
z"/>
<path fill="#D3D2D1" opacity="1.000000" stroke="none" 
	d="
M53.035313,153.996796 
	C54.511070,141.550171 59.133034,130.234161 65.805000,119.768150 
	C81.644455,94.921532 104.351982,81.067215 133.631927,77.957863 
	C137.088806,77.590767 140.554642,77.308014 144.878937,76.990318 
	C146.844147,76.983673 147.946732,76.972870 149.410721,77.008041 
	C151.182678,77.351776 152.593246,77.649551 154.359650,78.012131 
	C157.264206,79.288757 159.859238,80.412598 162.354019,81.726776 
	C177.507034,89.709015 181.744904,101.073219 180.734268,112.603317 
	C179.241699,129.631439 169.991333,142.527771 156.695953,153.119141 
	C155.630768,153.833069 154.835327,154.420654 153.737640,154.716797 
	C151.623993,154.291885 149.812683,154.043915 148.001129,154.042023 
	C116.345879,154.009048 84.690590,154.006195 53.035313,153.996796 
z"/>
<path fill="#FF924F" opacity="1.000000" stroke="none" 
	d="
M888.754883,136.791901 
	C895.116516,126.787254 902.653442,118.853088 914.674866,116.864563 
	C925.470520,115.078781 934.413574,117.943199 940.630920,127.451797 
	C940.955444,127.948120 941.411316,128.358521 941.731934,128.724335 
	C942.181824,128.555191 942.417053,128.540955 942.467590,128.436935 
	C944.120911,125.036415 945.127014,119.344208 947.522705,118.683617 
	C952.897034,117.201706 958.960571,118.219429 965.305054,118.219429 
	C962.827698,129.831070 960.445435,141.011353 958.056763,152.190231 
	C954.411499,169.249390 950.657288,186.286514 947.212402,203.386002 
	C946.607117,206.390671 945.457825,207.170242 942.650391,207.055161 
	C938.039185,206.866119 933.414551,207.003937 928.638245,207.003937 
	C928.855225,203.215485 929.041199,199.968567 929.287537,195.667358 
	C926.899963,197.897949 925.325439,199.516541 923.600830,200.955093 
	C915.087646,208.056091 905.442444,210.893127 894.802612,207.075684 
	C884.317261,203.313675 880.314575,194.482422 878.971680,184.170181 
	C876.788208,167.403809 880.539062,151.811310 888.754883,136.791901 
M902.974060,179.006790 
	C904.219543,190.935501 915.824158,191.689194 922.016113,185.246826 
	C933.075378,173.740204 936.318054,159.516815 933.896912,144.217270 
	C932.617432,136.131683 923.843628,133.354050 917.162964,138.196030 
	C915.055908,139.723129 913.143005,141.748489 911.695557,143.915970 
	C904.789856,154.256912 902.423523,165.832825 902.974060,179.006790 
z"/>
<path fill="#D9D9D9" opacity="1.000000" stroke="none" 
	d="
M674.222534,201.305038 
	C661.073120,211.596039 637.093262,209.994064 629.420959,187.395462 
	C623.961975,171.316025 624.153564,155.042572 631.801025,139.437592 
	C640.977112,120.713280 666.332092,119.775291 676.853577,132.245438 
	C677.871704,133.452271 679.170227,134.422638 680.813171,135.941528 
	C680.154846,130.415817 679.246094,125.688896 679.101013,120.938660 
	C678.836914,112.290833 679.026001,103.629166 679.026001,94.490402 
	C686.333740,94.490402 693.345581,94.490402 700.698730,94.490402 
	C700.698730,131.513214 700.698730,168.404724 700.698730,205.973740 
	C695.696533,205.973740 690.912537,206.143219 686.158264,205.842224 
	C685.106323,205.775650 683.854980,204.209412 683.230530,203.046402 
	C682.079529,200.902618 681.325195,198.545883 678.838135,195.132431 
	C677.385986,197.105545 675.933777,199.078644 674.222534,201.305038 
M648.988403,158.617157 
	C647.216003,166.657806 647.869324,174.511871 651.479187,181.902191 
	C654.404114,187.890350 659.498169,190.513092 666.197571,189.996933 
	C672.726562,189.493866 676.965515,186.302002 678.900391,179.904114 
	C681.602905,170.967300 681.736938,161.948990 679.112488,152.951874 
	C677.804016,148.466400 675.590637,144.764282 670.829529,143.053696 
	C659.853699,139.110291 651.606140,144.622299 648.988403,158.617157 
z"/>
<path fill="#FF924F" opacity="1.000000" stroke="none" 
	d="
M752.658264,133.276855 
	C757.340881,136.785446 761.795593,139.993454 766.176697,143.299072 
	C789.090637,160.587875 786.181030,193.442520 760.741577,204.383636 
	C752.008179,208.139725 742.725952,209.599197 733.389099,208.453842 
	C726.556030,207.615616 719.882751,205.355331 713.192322,203.530426 
	C710.295715,202.740326 709.112427,200.654800 709.246948,197.470444 
	C709.484009,191.857788 709.313232,186.227890 709.313232,180.603058 
	C716.739380,182.994049 723.641174,185.903534 730.836487,187.298752 
	C735.895325,188.279663 741.531128,187.998901 746.596802,186.874100 
	C757.173523,184.525574 760.469849,173.889450 753.242676,165.710510 
	C749.761047,161.770401 745.326233,158.622864 741.113464,155.389359 
	C733.440002,149.499557 726.765686,142.881821 724.133667,133.215271 
	C719.482910,116.134148 727.781677,99.501366 744.384033,92.388123 
	C758.359375,86.400383 780.793457,88.434341 794.468811,97.269844 
	C791.709717,103.099571 788.906372,109.022850 786.601440,113.893028 
	C777.405579,112.471451 769.004700,110.286995 760.559753,110.100716 
	C750.898926,109.887611 745.460022,119.174934 749.108887,128.088364 
	C749.842651,129.880890 751.282288,131.384506 752.658264,133.276855 
z"/>
<path fill="#FF924F" opacity="1.000000" stroke="none" 
	d="
M999.106079,188.224503 
	C997.992310,193.689026 997.090088,198.771637 995.808472,203.756729 
	C995.489441,204.997818 993.978455,206.812988 992.958008,206.851685 
	C985.830505,207.121933 978.687866,206.994629 971.133423,206.994629 
	C977.478333,177.084198 983.712769,147.694687 989.952515,118.280121 
	C996.125000,118.280121 1001.887085,118.280121 1008.192383,118.280121 
	C1007.770081,123.499138 1007.372803,128.408936 1006.888306,134.396576 
	C1009.364319,131.438614 1011.154236,129.158401 1013.091797,127.011490 
	C1019.568359,119.835388 1027.539062,115.598320 1037.337402,116.358253 
	C1051.816284,117.481209 1060.406738,128.447113 1058.171143,144.129410 
	C1055.946289,159.737350 1052.444092,175.164825 1049.437378,190.658875 
	C1048.396118,196.024704 1047.161011,201.352905 1046.007935,206.728271 
	C1037.901489,206.728271 1030.138428,206.728271 1022.086670,206.728271 
	C1025.892578,188.353943 1029.656616,170.306183 1033.340210,152.242050 
	C1033.801758,149.978424 1034.050293,147.626755 1034.034302,145.318436 
	C1033.978271,137.320450 1027.691406,132.995712 1020.946777,137.203934 
	C1016.550537,139.946838 1012.198730,144.418716 1010.274231,149.118210 
	C1006.336792,158.732925 1004.001831,169.009552 1001.110291,179.043335 
	C1000.283691,181.911865 999.811951,184.882675 999.106079,188.224503 
z"/>
<path fill="#D9D9D9" opacity="1.000000" stroke="none" 
	d="
M485.893250,207.037048 
	C470.417450,208.223541 458.138824,203.300079 449.971954,190.341370 
	C440.696442,175.623581 440.570404,145.074829 457.419434,132.064880 
	C466.654175,124.934235 477.224304,123.091125 488.493835,124.346222 
	C515.078125,127.306946 524.337097,151.896835 521.338074,173.023270 
	C519.625122,185.090103 515.317749,195.459076 504.641998,201.560867 
	C499.265839,204.633621 492.507141,205.287399 485.893250,207.037048 
M483.374359,189.967651 
	C489.107330,189.371048 494.232422,187.560226 496.538513,181.740128 
	C500.411804,171.964844 500.178040,161.845062 497.312714,151.982834 
	C495.037933,144.153198 490.461700,141.802261 481.153564,141.995026 
	C474.439240,142.134079 470.236572,145.403488 467.977020,152.723175 
	C465.376251,161.148117 465.474701,169.622849 467.856140,178.144363 
	C469.962799,185.682541 474.880707,189.457260 483.374359,189.967651 
z"/>
<path fill="#D9D9D9" opacity="1.000000" stroke="none" 
	d="
M541.596924,191.304413 
	C531.493286,176.199387 532.247314,145.135406 547.393616,132.937531 
	C557.008850,125.194031 567.811035,123.094322 579.600830,124.381279 
	C606.035156,127.266808 615.381470,151.990341 612.332214,173.066528 
	C610.618042,184.914948 606.126892,194.581711 596.182800,201.518600 
	C583.380981,210.449081 553.457520,210.671967 541.596924,191.304413 
M576.025452,189.830032 
	C581.162598,188.874985 585.618286,186.828568 587.617676,181.596420 
	C591.303467,171.951355 591.094482,162.016541 588.464661,152.280716 
	C586.428650,144.743118 581.708618,141.976730 573.485474,141.989563 
	C565.723999,142.001648 561.464050,144.949951 559.051331,152.397629 
	C556.326172,160.809875 556.345581,169.340759 558.825073,177.806580 
	C561.355652,186.446793 566.132385,189.897827 576.025452,189.830032 
z"/>
<path fill="#DADADA" opacity="1.000000" stroke="none" 
	d="
M402.023804,146.019806 
	C410.470947,146.019821 418.421356,146.019821 426.977173,146.019821 
	C426.977173,151.584061 427.177582,156.545624 426.803040,161.463425 
	C426.730743,162.412857 424.425629,163.901947 423.121216,163.933609 
	C414.126831,164.151917 405.120880,164.201721 396.126678,163.980667 
	C392.125946,163.882339 390.916687,165.399750 390.982605,169.252075 
	C391.167816,180.081833 390.946198,190.918350 391.107178,201.748886 
	C391.155396,204.992798 390.155884,206.218964 386.844666,206.057358 
	C382.189240,205.830139 377.510986,205.891037 372.849274,206.040649 
	C370.110046,206.128540 368.997284,205.246353 369.003479,202.355988 
	C369.072968,169.857300 369.081604,137.358307 368.991333,104.859718 
	C368.982544,101.691879 370.210510,100.924500 373.126709,100.939964 
	C390.792267,101.033691 408.458679,101.023643 426.124390,100.947762 
	C428.801941,100.936264 430.131897,101.627411 430.018616,104.583908 
	C429.846863,109.066101 429.973755,113.559738 429.973755,118.693176 
	C417.118103,118.693176 404.556152,118.693176 391.111389,118.693176 
	C391.111389,127.553131 391.043060,135.798492 391.237640,144.037659 
	C391.253693,144.716064 393.004242,145.800949 394.037537,145.918655 
	C396.505859,146.199829 399.027130,146.015900 402.023804,146.019806 
z"/>
<path fill="#FF914D" opacity="1.000000" stroke="none" 
	d="
M286.674805,287.808350 
	C284.036682,288.720581 281.703705,289.927399 279.364136,289.940369 
	C254.542374,290.077789 229.719543,290.042999 204.897064,290.013092 
	C198.613358,290.005524 194.308029,286.075928 194.307877,280.531097 
	C194.307739,275.215912 198.857193,271.047333 205.053452,271.026611 
	C225.044525,270.959808 245.035965,271.000549 265.027252,270.999878 
	C266.817200,270.999817 268.607117,270.999847 270.952820,270.999847 
	C270.952820,268.739532 270.952759,266.959137 270.952820,265.178711 
	C270.953613,241.855530 270.921204,218.532288 270.973358,195.209229 
	C270.991547,187.068329 277.202820,182.292007 284.034088,185.047409 
	C288.023956,186.656769 289.980377,189.772964 289.985107,193.999649 
	C290.017334,222.820389 290.072906,251.641663 289.871246,280.461029 
	C289.854645,282.830200 287.985352,285.186462 286.674805,287.808350 
z"/>
<path fill="#FF9350" opacity="1.000000" stroke="none" 
	d="
M834.750305,141.741318 
	C825.972046,151.972290 823.527893,163.878128 824.171936,176.486008 
	C824.607117,185.004044 829.724976,189.295700 838.403259,189.005600 
	C841.999146,188.885376 845.643005,188.085922 849.118652,187.086349 
	C852.429871,186.134033 855.550476,184.518845 859.610107,182.841797 
	C859.610107,189.187454 859.757080,195.067169 859.469177,200.925522 
	C859.419739,201.931656 857.677429,203.216583 856.447388,203.746048 
	C845.477905,208.467590 834.085693,210.161377 822.333679,207.512939 
	C809.132629,204.537949 800.862732,194.557312 799.956970,180.989731 
	C799.019226,166.943939 801.000977,153.453781 807.643433,140.868912 
	C821.143738,115.291267 847.052368,111.677155 869.782104,120.826660 
	C870.832397,121.249413 872.033569,123.749916 871.684509,124.782585 
	C869.941772,129.939789 867.704346,134.929840 865.537964,140.230560 
	C854.948853,136.295731 844.604126,132.124878 834.750305,141.741318 
z"/>
<path fill="#ADABAA" opacity="1.000000" stroke="none" 
	d="
M156.965698,152.992798 
	C169.991333,142.527771 179.241699,129.631439 180.734268,112.603317 
	C181.744904,101.073219 177.507034,89.709015 162.354019,81.726776 
	C159.859238,80.412598 157.264206,79.288757 154.359344,77.771500 
	C154.003204,77.466049 154.005280,76.983711 154.005280,76.983711 
	C189.381409,78.656334 219.963623,98.016685 231.827423,138.073334 
	C233.282990,142.987854 234.077896,148.098007 234.719757,153.551727 
	C210.213791,153.990021 186.166977,154.014679 162.120361,153.954880 
	C160.401352,153.950607 158.683884,153.327927 156.965698,152.992798 
z"/>
<path fill="#ADABAA" opacity="1.000000" stroke="none" 
	d="
M201.023590,174.002472 
	C194.849625,174.011322 188.675644,174.020187 181.594452,174.039001 
	C178.752090,174.029510 176.816940,174.010025 174.472534,174.040802 
	C172.038406,174.678040 170.013519,175.265015 167.988647,175.851974 
	C168.037933,176.016495 168.087204,176.181000 168.136490,176.345520 
	C166.051254,176.465164 163.966034,176.584808 161.530487,176.724548 
	C161.500275,172.380936 157.671188,174.465103 154.644318,173.995056 
	C152.440842,173.996277 150.677979,173.993790 148.484192,174.042267 
	C146.027649,174.062988 144.002045,174.032761 141.509521,173.985596 
	C132.702942,173.979935 124.363266,173.991211 116.023598,174.002487 
	C114.004875,174.031342 111.986145,174.060196 109.062256,174.035294 
	C99.838402,173.997833 91.519707,174.014130 83.201012,174.030441 
	C79.554619,174.020035 75.845810,173.578735 72.275818,174.095810 
	C66.266418,174.966217 62.871796,172.851837 62.254704,166.132721 
	C64.282791,165.317688 66.082916,165.048965 67.883499,165.045868 
	C92.922539,165.002731 117.961647,164.995956 143.289642,165.283081 
	C145.386337,165.723709 147.193985,165.979538 149.001923,165.981659 
	C175.630356,166.013046 202.258850,166.010681 228.887314,166.016327 
	C228.887314,168.444305 228.887314,170.872269 228.887314,174.000000 
	C223.970627,174.000000 219.442154,174.000000 213.983871,173.984360 
	C209.043915,173.979965 205.033752,173.991211 201.023590,174.002472 
z"/>
<path fill="#070707" opacity="1.000000" stroke="none" 
	d="
M83.263275,243.186066 
	C80.990234,243.186050 79.179985,243.186050 77.092422,243.186050 
	C77.092422,227.960876 77.092422,212.936646 77.092422,197.530701 
	C92.106705,197.530701 106.975250,197.530701 122.188217,197.530701 
	C122.188217,212.690155 122.188217,227.575760 122.188217,243.186066 
	C109.489624,243.186066 96.607841,243.186066 83.263275,243.186066 
M83.148811,208.677048 
	C83.148811,217.925003 83.148811,227.172943 83.148811,236.545197 
	C94.391151,236.545197 105.075912,236.545197 115.690399,236.545197 
	C115.690399,225.533447 115.690399,214.834183 115.690399,203.986282 
	C105.746727,203.986282 96.123466,204.110870 86.506783,203.914291 
	C83.413414,203.851059 82.805473,205.160278 83.148811,208.677048 
z"/>
<path fill="#0D0D0D" opacity="1.000000" stroke="none" 
	d="
M181.182358,235.784668 
	C179.338135,236.121307 177.493896,236.457947 175.299545,236.858505 
	C175.091064,234.400238 174.930832,232.510925 174.719711,230.021759 
	C172.708984,230.021759 170.791962,230.021759 168.478516,229.995422 
	C168.082062,229.969086 168.049210,230.070999 168.090424,229.599640 
	C168.131653,223.050293 168.131653,216.972305 168.131653,210.731598 
	C170.659897,210.537506 172.617249,210.387222 174.988861,210.205154 
	C174.988861,206.047974 174.988861,201.959641 174.988861,197.746674 
	C177.303909,197.519272 179.214508,197.331589 181.289978,197.127716 
	C181.393509,194.863480 181.483322,192.899628 181.591278,190.977936 
	C181.609421,191.020081 181.551117,191.090988 181.551117,191.090988 
	C183.506500,191.090988 185.461884,191.090988 187.684448,191.090988 
	C187.684448,195.341721 187.684448,199.295242 187.684448,203.611542 
	C189.982620,203.611542 192.018478,203.611542 194.482513,203.611542 
	C194.482513,199.470581 194.482513,195.376541 194.482513,191.133423 
	C196.702438,191.133423 198.505417,191.133423 200.741180,191.133423 
	C200.741180,195.272995 200.741180,199.365738 200.741180,203.795181 
	C203.077515,203.908264 205.007355,204.001663 207.244766,204.109970 
	C207.244766,206.081116 207.244766,207.989075 207.244766,210.241257 
	C205.291443,210.420044 203.360107,210.596817 201.024063,210.810638 
	C201.024063,212.595734 201.024063,214.401779 201.054352,216.645386 
	C201.084625,217.082962 201.136612,217.017075 201.136612,217.017059 
	C199.257477,217.017670 197.378357,217.018280 195.062592,217.014465 
	C194.625961,217.010056 194.561859,217.070312 194.511108,216.598053 
	C194.384186,214.382141 194.308014,212.638474 194.231659,210.890717 
	C191.929092,210.890717 190.087402,210.890717 187.938629,210.890717 
	C187.938629,213.171204 187.938629,215.121582 187.923370,217.027878 
	C187.908096,216.983795 187.974197,216.917984 187.974197,216.917984 
	C183.729828,216.917984 179.485474,216.917984 175.098145,216.917984 
	C175.098145,219.325058 175.098145,221.217636 175.098145,223.262344 
	C177.084320,223.385818 178.853500,223.495804 181.196671,223.641464 
	C181.196671,227.525162 181.196671,231.253113 181.196335,235.419662 
	C181.195999,235.858276 181.182358,235.784668 181.182358,235.784668 
z"/>
<path fill="#090909" opacity="1.000000" stroke="none" 
	d="
M154.927063,223.148270 
	C148.673752,223.148270 142.420441,223.148270 135.799545,223.148270 
	C135.683090,225.686844 135.601974,227.455200 135.493988,229.681702 
	C135.467133,230.139832 135.531738,230.072800 135.531738,230.072800 
	C133.557404,230.072800 131.583069,230.072800 129.295929,230.072800 
	C129.295929,225.794708 129.295929,221.733459 129.295929,217.261826 
	C130.964905,217.119034 132.862228,216.956711 135.106171,216.764725 
	C135.106171,214.927505 135.106171,213.068893 135.106171,210.840591 
	C133.214233,210.666580 131.306747,210.491150 128.978607,210.277023 
	C128.978607,204.029861 128.978607,197.936264 128.918854,191.396774 
	C128.859085,190.950897 128.798752,191.027817 128.798752,191.027817 
	C130.916931,191.027817 133.035126,191.027817 135.414276,191.027817 
	C135.414276,195.365723 135.414276,199.325409 135.414276,203.633347 
	C139.885300,203.633347 144.100616,203.633347 148.565414,203.633347 
	C148.565414,201.886093 148.565414,200.019974 148.565414,197.886429 
	C146.466583,197.685471 144.531342,197.500198 141.988434,197.256729 
	C141.988434,193.341614 141.988434,189.427429 141.998474,185.037949 
	C142.008499,184.562668 141.943283,184.585968 142.355652,184.385956 
	C144.881363,184.074860 146.994705,183.963776 148.842560,184.252792 
	C148.577103,186.674866 148.577103,188.696823 148.577103,191.048523 
	C151.092880,191.048523 153.001541,191.048523 154.983093,191.472198 
	C155.056015,193.665054 155.056015,195.434265 155.056015,197.296875 
	C157.767914,197.569214 159.893356,197.782669 161.943054,198.426147 
	C161.778854,200.455246 161.690384,202.054306 161.571915,204.195602 
	C157.014145,204.195602 152.821899,204.195602 148.781769,204.195602 
	C148.781769,208.705582 148.781769,212.643021 148.781769,216.992096 
	C150.977844,216.891098 152.911804,216.802139 154.824982,216.671677 
	C154.804184,216.630173 154.726654,216.579025 154.930389,217.003845 
	C155.077637,219.306396 155.021164,221.184143 154.931290,223.073059 
	C154.897888,223.084213 154.927063,223.148270 154.927063,223.148270 
z"/>
<path fill="#BAB9B9" opacity="1.000000" stroke="none" 
	d="
M229.206604,165.736359 
	C202.258850,166.010681 175.630356,166.013046 149.001923,165.981659 
	C147.193985,165.979538 145.386337,165.723709 143.429764,164.983154 
	C144.884842,162.634537 146.488708,160.888611 148.404755,159.106415 
	C149.135483,159.040756 149.554016,159.011368 150.443756,158.989838 
	C181.983414,158.976929 213.051865,158.956177 244.120331,158.935425 
	C248.003632,158.685867 249.844788,160.179764 248.320099,165.456406 
	C242.299591,165.456406 235.912735,165.456406 229.206604,165.736359 
z"/>
<path fill="#D3D2D1" opacity="1.000000" stroke="none" 
	d="
M148.092560,159.142700 
	C146.488708,160.888611 144.884842,162.634537 143.140854,164.680389 
	C117.961647,164.995956 92.922539,165.002731 67.883499,165.045868 
	C66.082916,165.048965 64.282791,165.317688 62.171391,165.762161 
	C56.634693,165.717880 51.395824,165.499176 46.192242,164.947647 
	C44.800449,164.800125 42.884277,163.925110 42.389938,162.844009 
	C42.018040,162.030670 43.533676,160.354263 45.054039,159.026474 
	C79.963531,159.041489 114.028046,159.092087 148.092560,159.142700 
z"/>
<path fill="#F1EDEA" opacity="1.000000" stroke="none" 
	d="
M148.404755,159.106415 
	C114.028046,159.092087 79.963531,159.041489 45.425400,158.970245 
	C43.161541,155.443604 44.492428,153.973633 48.162403,154.012939 
	C49.492702,154.027191 50.823326,154.011063 52.594559,154.002792 
	C84.690590,154.006195 116.345879,154.009048 148.001129,154.042023 
	C149.812683,154.043915 151.623993,154.291885 153.583466,155.001617 
	C152.478531,156.712616 151.225540,157.847305 149.972565,158.981979 
	C149.554016,159.011368 149.135483,159.040756 148.404755,159.106415 
z"/>
<path fill="#C7C6C5" opacity="1.000000" stroke="none" 
	d="
M150.443756,158.989838 
	C151.225540,157.847305 152.478531,156.712616 153.885712,155.293091 
	C154.835327,154.420654 155.630768,153.833069 156.695953,153.119141 
	C158.683884,153.327927 160.401352,153.950607 162.120361,153.954880 
	C186.166977,154.014679 210.213791,153.990021 234.753784,153.972534 
	C236.862411,154.004837 238.481522,154.141891 240.092377,154.076172 
	C242.972260,153.958633 244.336594,155.210052 244.095154,158.530029 
	C213.051865,158.956177 181.983414,158.976929 150.443756,158.989838 
z"/>
<path fill="#070707" opacity="1.000000" stroke="none" 
	d="
M83.176529,174.448425 
	C91.519707,174.014130 99.838402,173.997833 108.632812,173.985901 
	C109.108521,175.139145 109.108521,176.288025 109.108521,177.625351 
	C107.081589,177.754471 105.282272,177.869080 103.098450,178.008194 
	C103.098450,182.077988 103.098450,186.180878 103.098450,190.566223 
	C98.640869,190.566223 94.553474,190.566223 90.056496,190.566223 
	C90.056496,186.586639 90.056496,182.507812 90.056496,179.361877 
	C88.065002,176.185486 82.853264,180.552994 83.176529,174.448425 
z"/>
<path fill="#AFADAC" opacity="1.000000" stroke="none" 
	d="
M154.008026,76.590942 
	C154.005280,76.983711 154.003204,77.466049 154.003510,77.706680 
	C152.593246,77.649551 151.182678,77.351776 149.392456,76.546700 
	C148.318146,66.988480 147.623474,57.937565 146.928802,48.886650 
	C151.953659,50.035057 155.681061,55.135509 155.823685,62.599899 
	C155.910019,67.119469 154.660263,71.664558 154.008026,76.590942 
z"/>
<path fill="#C7C6C5" opacity="1.000000" stroke="none" 
	d="
M146.551193,48.899429 
	C147.623474,57.937565 148.318146,66.988480 149.031067,76.500732 
	C147.946732,76.972870 146.844147,76.983673 145.326630,76.988304 
	C141.928391,69.684395 139.944916,62.185574 142.139206,54.349930 
	C142.707703,52.319958 144.787811,50.713306 146.551193,48.899429 
z"/>
<path fill="#090909" opacity="1.000000" stroke="none" 
	d="
M181.481049,190.620987 
	C181.551117,191.090988 181.609421,191.020081 181.091858,190.937286 
	C176.365036,190.942261 172.155777,191.030029 168.091705,190.693268 
	C168.236908,188.359085 168.236908,186.449402 168.236908,184.371323 
	C170.591385,184.206741 172.492615,184.073853 174.881805,183.906845 
	C174.881805,180.480667 174.881805,177.235611 174.881805,173.990540 
	C176.816940,174.010025 178.752090,174.029510 181.096191,174.073563 
	C181.473770,179.449097 181.442368,184.800034 181.481049,190.620987 
z"/>
<path fill="#0D0D0D" opacity="1.000000" stroke="none" 
	d="
M141.943283,184.585968 
	C141.943283,184.585968 142.008499,184.562668 142.039246,184.546234 
	C139.977127,184.329758 137.884232,184.129700 135.617096,183.912994 
	C135.496719,181.950424 135.388077,180.179001 135.246353,177.868271 
	C129.762772,177.868271 124.361717,177.753036 118.969467,177.920975 
	C116.575821,177.995529 115.602287,177.242462 116.001411,174.438171 
	C124.363266,173.991211 132.702942,173.979935 141.531769,174.454803 
	C141.995056,178.155945 141.969162,181.370956 141.943283,184.585968 
z"/>
<path fill="#161616" opacity="1.000000" stroke="none" 
	d="
M128.898529,190.922012 
	C122.644249,190.893127 116.350548,190.893127 109.734802,190.893127 
	C109.734802,188.634491 109.734802,186.721115 109.734802,184.456970 
	C115.966866,184.456970 122.186340,184.456970 128.952484,184.456970 
	C128.952484,186.298080 128.952484,188.216980 128.875610,190.581848 
	C128.798752,191.027817 128.859085,190.950897 128.898529,190.922012 
z"/>
<path fill="#0D0D0D" opacity="1.000000" stroke="none" 
	d="
M201.001434,174.433014 
	C205.033752,173.991211 209.043915,173.979965 213.515244,173.985596 
	C213.976410,177.280838 213.976410,180.559219 213.976410,183.991547 
	C211.758774,183.991547 209.833679,183.991547 207.592255,183.991547 
	C207.496262,182.034317 207.409500,180.265442 207.334396,178.734146 
	C205.760666,176.238785 200.457626,180.564011 201.001434,174.433014 
z"/>
<path fill="#121212" opacity="1.000000" stroke="none" 
	d="
M135.485001,230.517685 
	C135.531738,230.072800 135.467133,230.139832 135.421448,230.161407 
	C137.490311,230.182999 139.604889,230.182999 141.835968,230.182999 
	C141.835968,232.302902 141.835968,234.218765 141.835968,236.338211 
	C139.865311,236.479752 138.076523,236.608215 135.961975,236.760086 
	C135.721313,238.785583 135.477386,240.838440 135.215729,243.040710 
	C133.230743,243.040710 131.422928,243.040710 129.289658,243.040710 
	C129.289658,241.218262 129.289658,239.319504 129.289658,237.039062 
	C131.059372,236.910324 132.974243,236.771011 135.438263,236.591751 
	C135.438263,234.765869 135.438263,232.864227 135.485001,230.517685 
z"/>
<path fill="#000000" opacity="1.000000" stroke="none" 
	d="
M168.041962,229.933594 
	C168.001877,234.163177 168.001877,238.428238 168.001877,242.926971 
	C166.054840,242.926971 164.294815,242.926971 161.851105,242.926971 
	C161.851105,239.005508 161.851105,234.943207 161.907990,230.435638 
	C161.964859,229.990372 161.979111,230.065491 162.411957,230.038422 
	C164.579605,230.031235 166.314407,230.051117 168.049210,230.070999 
	C168.049210,230.070999 168.082062,229.969086 168.041962,229.933594 
z"/>
<path fill="#202020" opacity="1.000000" stroke="none" 
	d="
M200.778351,242.396484 
	C198.750137,242.960434 196.837067,243.139984 194.629135,243.347198 
	C194.629135,240.980774 194.629135,239.097031 194.629135,236.981735 
	C196.701691,236.981735 198.624557,236.981735 200.893494,236.981735 
	C200.893494,238.774704 200.893494,240.393387 200.778351,242.396484 
z"/>
<path fill="#121212" opacity="1.000000" stroke="none" 
	d="
M181.400909,236.271362 
	C181.182358,235.784668 181.195999,235.858276 181.183304,235.877335 
	C183.229172,236.354965 185.287720,236.813538 187.712540,237.353699 
	C187.712540,238.942505 187.712540,240.820953 187.712540,242.959854 
	C185.846283,242.959854 183.943924,242.959854 181.619476,242.959854 
	C181.619476,240.862869 181.619476,238.810471 181.400909,236.271362 
z"/>
<path fill="#121212" opacity="1.000000" stroke="none" 
	d="
M83.209831,188.685272 
	C81.436783,189.933807 79.669304,190.782318 77.155228,191.989243 
	C77.155228,188.706818 77.155228,186.682800 77.155228,184.379639 
	C78.994514,184.379639 80.890305,184.379639 82.998749,184.379639 
	C83.071381,185.689026 83.143387,186.987137 83.209831,188.685272 
z"/>
<path fill="#121212" opacity="1.000000" stroke="none" 
	d="
M190.960281,184.215942 
	C185.534454,183.980133 189.092102,180.235641 187.569397,178.057159 
	C190.069534,178.057159 191.986221,178.057159 194.407776,178.057159 
	C193.681061,180.373245 197.135910,184.208405 190.960281,184.215942 
z"/>
<path fill="#202020" opacity="1.000000" stroke="none" 
	d="
M201.051697,217.108963 
	C202.984451,217.134964 204.950150,217.134964 207.272919,217.134964 
	C207.272919,219.008728 207.272919,220.886047 207.272919,223.207581 
	C205.392807,223.207581 203.385452,223.207581 200.968796,223.207581 
	C200.968796,221.412643 200.968796,219.639832 201.052704,217.442047 
	C201.136612,217.017075 201.084625,217.082962 201.051697,217.108963 
z"/>
<path fill="#454545" opacity="1.000000" stroke="none" 
	d="
M154.921982,223.652573 
	C154.927063,223.148270 154.897888,223.084213 155.370056,223.102539 
	C157.752731,223.247940 159.663223,223.375015 161.979111,223.529053 
	C161.979111,225.910172 161.979111,227.987839 161.979111,230.065491 
	C161.979111,230.065491 161.964859,229.990372 161.998474,229.973206 
	C159.895264,229.956024 157.758453,229.956024 155.234680,229.956024 
	C155.128220,228.013321 155.022568,226.085098 154.921982,223.652573 
z"/>
<path fill="#202020" opacity="1.000000" stroke="none" 
	d="
M214.054108,234.656891 
	C212.152252,235.788712 210.257080,236.479019 207.725586,237.401093 
	C207.725586,234.388641 207.725586,232.497604 207.725586,230.151535 
	C209.529419,230.060257 211.442581,229.963440 213.819290,229.843185 
	C213.904831,231.392090 213.982788,232.803711 214.054108,234.656891 
z"/>
<path fill="#000000" opacity="1.000000" stroke="none" 
	d="
M194.561859,217.070312 
	C194.561859,217.070312 194.625961,217.010056 194.593353,216.980270 
	C194.522873,218.586380 194.504227,220.223145 194.429565,221.857346 
	C194.416000,222.154434 194.173462,222.441071 193.974533,222.864807 
	C192.255493,222.864807 190.477737,222.864807 187.998978,222.864807 
	C187.998978,221.236786 187.998978,219.525269 187.986588,217.365875 
	C187.974197,216.917984 187.908096,216.983795 188.394226,216.994675 
	C190.774185,217.027145 192.668015,217.048737 194.561859,217.070312 
z"/>
<path fill="#FFFEFD" opacity="1.000000" stroke="none" 
	d="
M902.947998,178.558578 
	C902.423523,165.832825 904.789856,154.256912 911.695557,143.915970 
	C913.143005,141.748489 915.055908,139.723129 917.162964,138.196030 
	C923.843628,133.354050 932.617432,136.131683 933.896912,144.217270 
	C936.318054,159.516815 933.075378,173.740204 922.016113,185.246826 
	C915.824158,191.689194 904.219543,190.935501 902.947998,178.558578 
z"/>
<path fill="#FFFFFF" opacity="1.000000" stroke="none" 
	d="
M648.996155,158.187683 
	C651.606140,144.622299 659.853699,139.110291 670.829529,143.053696 
	C675.590637,144.764282 677.804016,148.466400 679.112488,152.951874 
	C681.736938,161.948990 681.602905,170.967300 678.900391,179.904114 
	C676.965515,186.302002 672.726562,189.493866 666.197571,189.996933 
	C659.498169,190.513092 654.404114,187.890350 651.479187,181.902191 
	C647.869324,174.511871 647.216003,166.657806 648.996155,158.187683 
z"/>
<path fill="#FFFFFF" opacity="1.000000" stroke="none" 
	d="
M482.954895,189.970032 
	C474.880707,189.457260 469.962799,185.682541 467.856140,178.144363 
	C465.474701,169.622849 465.376251,161.148117 467.977020,152.723175 
	C470.236572,145.403488 474.439240,142.134079 481.153564,141.995026 
	C490.461700,141.802261 495.037933,144.153198 497.312714,151.982834 
	C500.178040,161.845062 500.411804,171.964844 496.538513,181.740128 
	C494.232422,187.560226 489.107330,189.371048 482.954895,189.970032 
z"/>
<path fill="#FFFFFF" opacity="1.000000" stroke="none" 
	d="
M575.611084,189.884384 
	C566.132385,189.897827 561.355652,186.446793 558.825073,177.806580 
	C556.345581,169.340759 556.326172,160.809875 559.051331,152.397629 
	C561.464050,144.949951 565.723999,142.001648 573.485474,141.989563 
	C581.708618,141.976730 586.428650,144.743118 588.464661,152.280716 
	C591.094482,162.016541 591.303467,171.951355 587.617676,181.596420 
	C585.618286,186.828568 581.162598,188.874985 575.611084,189.884384 
z"/>
<path fill="#FFFFFF" opacity="1.000000" stroke="none" 
	d="
M174.472534,174.040802 
	C174.881805,177.235611 174.881805,180.480667 174.881805,183.906845 
	C172.492615,184.073853 170.591385,184.206741 168.236908,184.371323 
	C168.236908,186.449402 168.236908,188.359085 168.125458,190.654343 
	C168.014023,191.039932 168.046448,190.941620 167.617554,190.968903 
	C165.470078,191.002930 163.751465,191.009659 161.765320,190.938965 
	C161.317017,190.904114 161.136261,190.946686 161.013245,190.547882 
	C161.070984,188.524231 161.070984,186.941956 161.070984,185.219360 
	C158.781982,185.219360 156.934189,185.219360 154.503311,185.219360 
	C155.127899,187.395126 155.639420,189.177017 155.839401,190.962769 
	C155.321976,190.993942 155.116074,191.021240 154.910187,191.048523 
	C153.001541,191.048523 151.092880,191.048523 148.577103,191.048523 
	C148.577103,188.696823 148.577103,186.674866 148.803482,184.305222 
	C149.029861,183.957535 148.944000,184.056030 149.403625,184.106384 
	C151.484985,184.156723 153.106705,184.156723 155.084915,184.156723 
	C155.084915,180.556046 155.084915,177.273697 155.084915,173.991348 
	C157.671188,174.465103 161.500275,172.380936 161.530487,176.724548 
	C163.966034,176.584808 166.051254,176.465164 168.136490,176.345520 
	C168.087204,176.181000 168.037933,176.016495 167.988647,175.851974 
	C170.013519,175.265015 172.038406,174.678040 174.472534,174.040802 
z"/>
<path fill="#FFFFFF" opacity="1.000000" stroke="none" 
	d="
M142.355652,184.385956 
	C141.969162,181.370956 141.995056,178.155945 141.998688,174.471741 
	C144.002045,174.032761 146.027649,174.062988 148.446945,174.497345 
	C148.875076,177.952988 148.909546,181.004517 148.944000,184.056030 
	C148.944000,184.056030 149.029861,183.957535 149.068939,183.905106 
	C146.994705,183.963776 144.881363,184.074860 142.355652,184.385956 
z"/>
<path fill="#000000" opacity="1.000000" stroke="none" 
	d="
M149.403625,184.106384 
	C148.909546,181.004517 148.875076,177.952988 148.877869,174.446381 
	C150.677979,173.993790 152.440842,173.996277 154.644318,173.995056 
	C155.084915,177.273697 155.084915,180.556046 155.084915,184.156723 
	C153.106705,184.156723 151.484985,184.156723 149.403625,184.106384 
z"/>
<path fill="#F1F1F1" opacity="1.000000" stroke="none" 
	d="
M83.148834,208.198181 
	C82.805473,205.160278 83.413414,203.851059 86.506783,203.914291 
	C96.123466,204.110870 105.746727,203.986282 115.690399,203.986282 
	C115.690399,214.834183 115.690399,225.533447 115.690399,236.545197 
	C105.075912,236.545197 94.391151,236.545197 83.148811,236.545197 
	C83.148811,227.172943 83.148811,217.925003 83.148834,208.198181 
M91.677086,229.968719 
	C97.464340,229.968719 103.251595,229.968719 109.025299,229.968719 
	C109.025299,223.292892 109.025299,217.071594 109.025299,210.749435 
	C102.517059,210.749435 96.430206,210.749435 89.523026,210.749435 
	C89.926292,217.281219 90.316437,223.600342 91.677086,229.968719 
z"/>
<path fill="#FBFBFB" opacity="1.000000" stroke="none" 
	d="
M162.411957,230.038422 
	C161.979111,227.987839 161.979111,225.910172 161.979111,223.529053 
	C159.663223,223.375015 157.752731,223.247940 155.403473,223.091370 
	C155.021164,221.184143 155.077637,219.306396 155.375122,217.226166 
	C157.655777,217.023697 159.695435,217.023697 161.555984,217.023697 
	C161.555984,214.450760 161.555984,212.584457 161.555984,210.695892 
	C159.312149,210.695892 157.423492,210.695892 155.352753,210.695892 
	C155.168701,212.880417 155.007233,214.796814 154.845764,216.713196 
	C152.911804,216.802139 150.977844,216.891098 148.781769,216.992096 
	C148.781769,212.643021 148.781769,208.705582 148.781769,204.195602 
	C152.821899,204.195602 157.014145,204.195602 161.571915,204.195602 
	C161.690384,202.054306 161.778854,200.455246 161.913254,198.434372 
	C161.959183,198.012573 161.966232,198.074982 162.318329,197.821701 
	C164.419952,197.449570 166.169479,197.330719 168.046448,197.203217 
	C168.046448,194.873489 168.046448,192.907562 168.046448,190.941620 
	C168.046448,190.941620 168.014023,191.039932 167.980270,191.078857 
	C172.155777,191.030029 176.365036,190.942261 181.073700,190.895126 
	C181.483322,192.899628 181.393509,194.863480 181.289978,197.127716 
	C179.214508,197.331589 177.303909,197.519272 174.988861,197.746674 
	C174.988861,201.959641 174.988861,206.047974 174.988861,210.205154 
	C172.617249,210.387222 170.659897,210.537506 168.131653,210.731598 
	C168.131653,216.972305 168.131653,223.050293 168.090424,229.599640 
	C166.314407,230.051117 164.579605,230.031235 162.411957,230.038422 
z"/>
<path fill="#FFFFFF" opacity="1.000000" stroke="none" 
	d="
M194.511108,216.598053 
	C192.668015,217.048737 190.774185,217.027145 188.409485,217.038757 
	C187.938629,215.121582 187.938629,213.171204 187.938629,210.890717 
	C190.087402,210.890717 191.929092,210.890717 194.231659,210.890717 
	C194.308014,212.638474 194.384186,214.382141 194.511108,216.598053 
z"/>
<path fill="#D3D2D1" opacity="1.000000" stroke="none" 
	d="
M154.983093,191.472198 
	C155.116074,191.021240 155.321976,190.993942 156.239471,190.941223 
	C158.285889,190.940308 159.620712,190.964783 160.955521,190.989258 
	C161.136261,190.946686 161.317017,190.904114 161.728424,191.378906 
	C161.961472,193.955856 161.963852,196.015427 161.966232,198.074982 
	C161.966232,198.074982 161.959183,198.012573 161.988983,198.004349 
	C159.893356,197.782669 157.767914,197.569214 155.056015,197.296875 
	C155.056015,195.434265 155.056015,193.665054 154.983093,191.472198 
z"/>
<path fill="#000000" opacity="1.000000" stroke="none" 
	d="
M162.318329,197.821701 
	C161.963852,196.015427 161.961472,193.955856 161.995972,191.456345 
	C163.751465,191.009659 165.470078,191.002930 167.617554,190.968903 
	C168.046448,192.907562 168.046448,194.873489 168.046448,197.203217 
	C166.169479,197.330719 164.419952,197.449570 162.318329,197.821701 
z"/>
<path fill="#000000" opacity="1.000000" stroke="none" 
	d="
M161.013245,190.547882 
	C159.620712,190.964783 158.285889,190.940308 156.551010,190.937378 
	C155.639420,189.177017 155.127899,187.395126 154.503311,185.219360 
	C156.934189,185.219360 158.781982,185.219360 161.070984,185.219360 
	C161.070984,186.941956 161.070984,188.524231 161.013245,190.547882 
z"/>
<path fill="#000000" opacity="1.000000" stroke="none" 
	d="
M91.191833,229.944092 
	C90.316437,223.600342 89.926292,217.281219 89.523026,210.749435 
	C96.430206,210.749435 102.517059,210.749435 109.025299,210.749435 
	C109.025299,217.071594 109.025299,223.292892 109.025299,229.968719 
	C103.251595,229.968719 97.464340,229.968719 91.191833,229.944092 
z"/>
<path fill="#202020" opacity="1.000000" stroke="none" 
	d="
M154.824982,216.671692 
	C155.007233,214.796814 155.168701,212.880417 155.352753,210.695892 
	C157.423492,210.695892 159.312149,210.695892 161.555984,210.695892 
	C161.555984,212.584457 161.555984,214.450760 161.555984,217.023697 
	C159.695435,217.023697 157.655777,217.023697 155.171387,216.801361 
	C154.726654,216.579025 154.804184,216.630173 154.824982,216.671692 
z"/>
</svg>